<mxfile host="Electron" modified="2023-08-07T14:15:29.613Z" agent="Mozilla/5.0 (Windows NT 10.0; Win64; x64) AppleWebKit/537.36 (KHTML, like Gecko) draw.io/21.6.5 Chrome/114.0.5735.243 Electron/25.3.1 Safari/537.36" etag="_fm1RHdcPG-_s2Wb-1cR" version="21.6.5" type="device">
  <diagram name="Page-1" id="b0l7ESKUN2iCM2dg8Psz">
    <mxGraphModel dx="880" dy="545" grid="1" gridSize="10" guides="1" tooltips="1" connect="1" arrows="1" fold="1" page="1" pageScale="1" pageWidth="1169" pageHeight="827" math="0" shadow="0">
      <root>
        <mxCell id="0" />
        <mxCell id="1" parent="0" />
        <mxCell id="jDMhhnwzcNTITepQ-mT4-1" value="" style="fontStyle=1;align=center;verticalAlign=top;childLayout=stackLayout;horizontal=1;horizontalStack=0;resizeParent=1;resizeParentMax=0;resizeLast=0;marginBottom=0;" vertex="1" parent="1">
          <mxGeometry x="40" y="40" width="140" height="148" as="geometry" />
        </mxCell>
        <mxCell id="jDMhhnwzcNTITepQ-mT4-2" value="«interface»&lt;br&gt;&lt;b&gt;OrderEntry&lt;/b&gt;" style="html=1;align=center;spacingLeft=4;verticalAlign=middle;strokeColor=none;fillColor=none;whiteSpace=wrap;" vertex="1" parent="jDMhhnwzcNTITepQ-mT4-1">
          <mxGeometry width="140" height="40" as="geometry" />
        </mxCell>
        <mxCell id="jDMhhnwzcNTITepQ-mT4-3" value="" style="shape=module;jettyWidth=10;jettyHeight=4;" vertex="1" parent="jDMhhnwzcNTITepQ-mT4-2">
          <mxGeometry x="1" width="16" height="20" relative="1" as="geometry">
            <mxPoint x="-25" y="9" as="offset" />
          </mxGeometry>
        </mxCell>
        <mxCell id="jDMhhnwzcNTITepQ-mT4-4" value="" style="line;strokeWidth=1;fillColor=none;align=left;verticalAlign=middle;spacingTop=-1;spacingLeft=3;spacingRight=3;rotatable=0;labelPosition=right;points=[];portConstraint=eastwest;" vertex="1" parent="jDMhhnwzcNTITepQ-mT4-1">
          <mxGeometry y="40" width="140" height="8" as="geometry" />
        </mxCell>
        <mxCell id="jDMhhnwzcNTITepQ-mT4-5" value="operations" style="html=1;align=center;spacingLeft=4;verticalAlign=top;strokeColor=none;fillColor=none;whiteSpace=wrap;" vertex="1" parent="jDMhhnwzcNTITepQ-mT4-1">
          <mxGeometry y="48" width="140" height="25" as="geometry" />
        </mxCell>
        <mxCell id="jDMhhnwzcNTITepQ-mT4-6" value="Create()" style="html=1;align=left;spacingLeft=4;verticalAlign=top;strokeColor=none;fillColor=none;whiteSpace=wrap;" vertex="1" parent="jDMhhnwzcNTITepQ-mT4-1">
          <mxGeometry y="73" width="140" height="25" as="geometry" />
        </mxCell>
        <mxCell id="jDMhhnwzcNTITepQ-mT4-10" value="Validate()" style="html=1;align=left;spacingLeft=4;verticalAlign=top;strokeColor=none;fillColor=none;whiteSpace=wrap;" vertex="1" parent="jDMhhnwzcNTITepQ-mT4-1">
          <mxGeometry y="98" width="140" height="25" as="geometry" />
        </mxCell>
        <mxCell id="jDMhhnwzcNTITepQ-mT4-11" value="AddOrderLine()" style="html=1;align=left;spacingLeft=4;verticalAlign=top;strokeColor=none;fillColor=none;whiteSpace=wrap;" vertex="1" parent="jDMhhnwzcNTITepQ-mT4-1">
          <mxGeometry y="123" width="140" height="25" as="geometry" />
        </mxCell>
        <mxCell id="jDMhhnwzcNTITepQ-mT4-12" value="" style="fontStyle=1;align=center;verticalAlign=top;childLayout=stackLayout;horizontal=1;horizontalStack=0;resizeParent=1;resizeParentMax=0;resizeLast=0;marginBottom=0;" vertex="1" parent="1">
          <mxGeometry x="530" y="40" width="140" height="148" as="geometry" />
        </mxCell>
        <mxCell id="jDMhhnwzcNTITepQ-mT4-13" value="«interface»&lt;br&gt;&lt;b&gt;Person&lt;/b&gt;" style="html=1;align=center;spacingLeft=4;verticalAlign=middle;strokeColor=none;fillColor=none;whiteSpace=wrap;" vertex="1" parent="jDMhhnwzcNTITepQ-mT4-12">
          <mxGeometry width="140" height="40" as="geometry" />
        </mxCell>
        <mxCell id="jDMhhnwzcNTITepQ-mT4-14" value="" style="shape=module;jettyWidth=10;jettyHeight=4;" vertex="1" parent="jDMhhnwzcNTITepQ-mT4-13">
          <mxGeometry x="1" width="16" height="20" relative="1" as="geometry">
            <mxPoint x="-25" y="9" as="offset" />
          </mxGeometry>
        </mxCell>
        <mxCell id="jDMhhnwzcNTITepQ-mT4-15" value="" style="line;strokeWidth=1;fillColor=none;align=left;verticalAlign=middle;spacingTop=-1;spacingLeft=3;spacingRight=3;rotatable=0;labelPosition=right;points=[];portConstraint=eastwest;" vertex="1" parent="jDMhhnwzcNTITepQ-mT4-12">
          <mxGeometry y="40" width="140" height="8" as="geometry" />
        </mxCell>
        <mxCell id="jDMhhnwzcNTITepQ-mT4-16" value="operations" style="html=1;align=center;spacingLeft=4;verticalAlign=top;strokeColor=none;fillColor=none;whiteSpace=wrap;" vertex="1" parent="jDMhhnwzcNTITepQ-mT4-12">
          <mxGeometry y="48" width="140" height="25" as="geometry" />
        </mxCell>
        <mxCell id="jDMhhnwzcNTITepQ-mT4-17" value="Create()" style="html=1;align=left;spacingLeft=4;verticalAlign=top;strokeColor=none;fillColor=none;whiteSpace=wrap;" vertex="1" parent="jDMhhnwzcNTITepQ-mT4-12">
          <mxGeometry y="73" width="140" height="25" as="geometry" />
        </mxCell>
        <mxCell id="jDMhhnwzcNTITepQ-mT4-18" value="FindByName()" style="html=1;align=left;spacingLeft=4;verticalAlign=top;strokeColor=none;fillColor=none;whiteSpace=wrap;" vertex="1" parent="jDMhhnwzcNTITepQ-mT4-12">
          <mxGeometry y="98" width="140" height="25" as="geometry" />
        </mxCell>
        <mxCell id="jDMhhnwzcNTITepQ-mT4-19" value="GetDetails()" style="html=1;align=left;spacingLeft=4;verticalAlign=top;strokeColor=none;fillColor=none;whiteSpace=wrap;" vertex="1" parent="jDMhhnwzcNTITepQ-mT4-12">
          <mxGeometry y="123" width="140" height="25" as="geometry" />
        </mxCell>
        <mxCell id="jDMhhnwzcNTITepQ-mT4-20" value="" style="fontStyle=1;align=center;verticalAlign=top;childLayout=stackLayout;horizontal=1;horizontalStack=0;resizeParent=1;resizeParentMax=0;resizeLast=0;marginBottom=0;" vertex="1" parent="1">
          <mxGeometry x="280" y="41" width="140" height="40" as="geometry" />
        </mxCell>
        <mxCell id="jDMhhnwzcNTITepQ-mT4-21" value="«component»&lt;br&gt;&lt;b&gt;Order&lt;/b&gt;" style="html=1;align=center;spacingLeft=4;verticalAlign=middle;strokeColor=none;fillColor=none;whiteSpace=wrap;" vertex="1" parent="jDMhhnwzcNTITepQ-mT4-20">
          <mxGeometry width="140" height="40" as="geometry" />
        </mxCell>
        <mxCell id="jDMhhnwzcNTITepQ-mT4-22" value="" style="shape=module;jettyWidth=10;jettyHeight=4;" vertex="1" parent="jDMhhnwzcNTITepQ-mT4-21">
          <mxGeometry x="1" width="16" height="20" relative="1" as="geometry">
            <mxPoint x="-25" y="9" as="offset" />
          </mxGeometry>
        </mxCell>
        <mxCell id="jDMhhnwzcNTITepQ-mT4-29" value="" style="endArrow=block;startArrow=none;endFill=0;startFill=0;endSize=8;html=1;verticalAlign=bottom;dashed=1;labelBackgroundColor=none;rounded=0;" edge="1" parent="1" source="jDMhhnwzcNTITepQ-mT4-21">
          <mxGeometry width="160" relative="1" as="geometry">
            <mxPoint x="120" y="61" as="sourcePoint" />
            <mxPoint x="180" y="61" as="targetPoint" />
          </mxGeometry>
        </mxCell>
        <mxCell id="jDMhhnwzcNTITepQ-mT4-30" value="«use»" style="endArrow=open;html=1;rounded=0;align=center;verticalAlign=bottom;dashed=1;endFill=0;labelBackgroundColor=none;exitX=1;exitY=0.5;exitDx=0;exitDy=0;entryX=0;entryY=0.5;entryDx=0;entryDy=0;" edge="1" parent="1" source="jDMhhnwzcNTITepQ-mT4-21" target="jDMhhnwzcNTITepQ-mT4-13">
          <mxGeometry relative="1" as="geometry">
            <mxPoint x="410" y="60" as="sourcePoint" />
            <mxPoint x="570" y="60" as="targetPoint" />
          </mxGeometry>
        </mxCell>
        <mxCell id="jDMhhnwzcNTITepQ-mT4-33" value="&lt;b&gt;Figure 11.43 Explicit representation of provided and required Interfaces using Dependency notation.&lt;/b&gt;" style="text;html=1;align=left;verticalAlign=middle;resizable=0;points=[];autosize=1;strokeColor=none;fillColor=none;" vertex="1" parent="1">
          <mxGeometry x="40" y="200" width="590" height="30" as="geometry" />
        </mxCell>
      </root>
    </mxGraphModel>
  </diagram>
</mxfile>
